<svg width="800" height="800" viewBox="0 0 800 800" xmlns="http://www.w3.org/2000/svg">
  <defs>
    <pattern id="circuit" x="0" y="0" width="100" height="100" patternUnits="userSpaceOnUse">
      <path d="M0 50 H30 M70 50 H100 M50 0 V30 M50 70 V100" stroke="currentColor" stroke-width="1.5" fill="none" />
      <circle cx="50" cy="50" r="3" fill="currentColor" />
      <circle cx="30" cy="50" r="2" fill="currentColor" />
      <circle cx="70" cy="50" r="2" fill="currentColor" />
      <circle cx="50" cy="30" r="2" fill="currentColor" />
      <circle cx="50" cy="70" r="2" fill="currentColor" />
      <path d="M30 50 C 30 40, 40 30, 50 30" stroke="currentColor" stroke-width="1" fill="none" />
      <path d="M70 50 C 70 40, 60 30, 50 30" stroke="currentColor" stroke-width="1" fill="none" />
      <path d="M30 50 C 30 60, 40 70, 50 70" stroke="currentColor" stroke-width="1" fill="none" />
      <path d="M70 50 C 70 60, 60 70, 50 70" stroke="currentColor" stroke-width="1" fill="none" />
    </pattern>
  </defs>
  <rect width="100%" height="100%" fill="url(#circuit)" />
</svg> 