<svg xmlns="http://www.w3.org/2000/svg" width="400" height="400" viewBox="0 0 400 400">
  <!-- Background -->
  <circle cx="200" cy="200" r="190" fill="#f8fafc" stroke="#e2e8f0" stroke-width="2"/>
  
  <!-- People Group -->
  <g transform="translate(100, 120)">
    <!-- Person 1 -->
    <circle cx="60" cy="60" r="30" fill="#3b82f6"/>
    <circle cx="60" cy="40" r="20" fill="#93c5fd"/>
    <path d="M45,70 Q60,90 75,70" stroke="#93c5fd" stroke-width="3" fill="none"/>
    
    <!-- Person 2 -->
    <circle cx="130" cy="60" r="30" fill="#ef4444"/>
    <circle cx="130" cy="40" r="20" fill="#fca5a5"/>
    <path d="M115,70 Q130,90 145,70" stroke="#fca5a5" stroke-width="3" fill="none"/>
    
    <!-- Person 3 -->
    <circle cx="200" cy="60" r="30" fill="#10b981"/>
    <circle cx="200" cy="40" r="20" fill="#6ee7b7"/>
    <path d="M185,70 Q200,90 215,70" stroke="#6ee7b7" stroke-width="3" fill="none"/>
  </g>
  
  <!-- Connection Lines -->
  <path d="M160,180 L200,140" stroke="#94a3b8" stroke-width="2" stroke-dasharray="4"/>
  <path d="M230,180 L200,140" stroke="#94a3b8" stroke-width="2" stroke-dasharray="4"/>
  <path d="M300,180 L200,140" stroke="#94a3b8" stroke-width="2" stroke-dasharray="4"/>
  
  <!-- Chat Bubbles -->
  <g transform="translate(120, 80)">
    <rect x="-10" y="-10" width="40" height="30" rx="10" fill="#3b82f6" opacity="0.8"/>
    <rect x="50" y="-25" width="50" height="30" rx="10" fill="#ef4444" opacity="0.8"/>
    <rect x="120" y="-5" width="35" height="30" rx="10" fill="#10b981" opacity="0.8"/>
  </g>
  
  <!-- Decorative Elements -->
  <circle cx="300" cy="100" r="15" fill="#f59e0b" opacity="0.7"/>
  <circle cx="330" cy="130" r="10" fill="#8b5cf6" opacity="0.7"/>
  <circle cx="100" cy="90" r="12" fill="#ec4899" opacity="0.7"/>
  <circle cx="80" cy="120" r="8" fill="#06b6d4" opacity="0.7"/>
</svg> 