<svg width="600" height="400" viewBox="0 0 600 400" xmlns="http://www.w3.org/2000/svg">
  <!-- Background -->
  <rect width="600" height="400" fill="#0F172A"/>
  
  <!-- Tailwind Logo -->
  <path d="M150 200c10-40 40-50 70-30-10-10 0-30 20-30 20 0 30 20 20 30 30-20 60-10 70 30-10-10-30-10-50 10 20-10 40-10 60 10-20 40-60 60-100 20 40 40 20 80-20 80s-60-40-20-80c-40 40-80 20-100-20 20-20 40-20 60-10-20-20-40-20-50-10Z" fill="#38BDF8"/>
  
  <!-- Tutorial Label -->
  <text x="300" y="120" font-family="Arial, sans-serif" font-size="32" font-weight="bold" fill="white" text-anchor="middle">Tailwind CSS Masterclass</text>
</svg> 