<svg width="800" height="600" viewBox="0 0 800 600" xmlns="http://www.w3.org/2000/svg">
  <!-- Background Circles -->
  <circle cx="400" cy="300" r="250" fill="url(#gradient1)" opacity="0.1" />
  <circle cx="400" cy="300" r="200" fill="url(#gradient2)" opacity="0.15" />
  <circle cx="400" cy="300" r="150" fill="url(#gradient3)" opacity="0.2" />

  <!-- Gradients -->
  <defs>
    <linearGradient id="gradient1" x1="0%" y1="0%" x2="100%" y2="100%">
      <stop offset="0%" style="stop-color:#3B82F6" />
      <stop offset="100%" style="stop-color:#8B5CF6" />
    </linearGradient>
    <linearGradient id="gradient2" x1="100%" y1="0%" x2="0%" y2="100%">
      <stop offset="0%" style="stop-color:#3B82F6" />
      <stop offset="100%" style="stop-color:#8B5CF6" />
    </linearGradient>
    <linearGradient id="gradient3" x1="0%" y1="100%" x2="100%" y2="0%">
      <stop offset="0%" style="stop-color:#3B82F6" />
      <stop offset="100%" style="stop-color:#8B5CF6" />
    </linearGradient>
  </defs>

  <!-- Code Window -->
  <rect x="250" y="150" width="300" height="200" rx="10" fill="#1E293B" />
  <rect x="250" y="150" width="300" height="30" rx="10" fill="#334155" />
  <circle cx="270" cy="165" r="5" fill="#EF4444" />
  <circle cx="290" cy="165" r="5" fill="#FCD34D" />
  <circle cx="310" cy="165" r="5" fill="#22C55E" />

  <!-- Code Lines -->
  <rect x="270" y="200" width="180" height="10" rx="5" fill="#4ADE80" opacity="0.6" />
  <rect x="270" y="220" width="220" height="10" rx="5" fill="#60A5FA" opacity="0.6" />
  <rect x="270" y="240" width="160" height="10" rx="5" fill="#F472B6" opacity="0.6" />
  <rect x="270" y="260" width="200" height="10" rx="5" fill="#A78BFA" opacity="0.6" />
  <rect x="270" y="280" width="140" height="10" rx="5" fill="#34D399" opacity="0.6" />

  <!-- Floating Elements -->
  <rect x="150" y="400" width="100" height="60" rx="8" fill="#3B82F6" opacity="0.8" />
  <rect x="550" y="200" width="100" height="60" rx="8" fill="#8B5CF6" opacity="0.8" />
  <rect x="600" y="400" width="80" height="80" rx="8" fill="#EC4899" opacity="0.8" />
</svg> 