<svg xmlns="http://www.w3.org/2000/svg" viewBox="0 0 32 32">
  <path fill="#00ED64" d="M15.9.087l.854 1.604c.192.296.4.558.645.802.715.715 1.394 1.464 2.004 2.266 1.447 1.9 2.423 4.01 3.12 6.292.418 1.394.645 2.824.662 4.27.07 4.323-1.412 8.035-4.4 11.12-.488.488-1.01.94-1.57 1.342-.296 0-.436-.227-.558-.436-.227-.383-.366-.802-.436-1.217-.174-.975-.227-1.968-.192-2.96.07-2.358.436-4.678.94-6.96.192-.802.436-1.586.575-2.405.017-.296 0-.61-.192-.87-.296-.68-.575-1.342-.936-1.995-.087-.174-.07-.296.087-.436.47-.383.766-.907.87-1.447.183-.897.314-1.81.314-2.73v-.35c0-.436-.13-.872-.384-1.26-.557-.975-1.288-1.834-2.004-2.7-.505-.627-1.01-1.253-1.585-1.83-.314-.314-.645-.645-.936-.976zm-.384 20.97c.104.418.174.872.174 1.325 0 .575-.07 1.15-.174 1.7-.158.88-.507 1.694-.936 2.474-.87 1.646-2.39 2.824-4.157 3.416-.488.174-.992.297-1.497.366-.296 0-.61 0-.91.087h-.087c-.644-.087-1.273-.244-1.882-.488-1.95-.766-3.416-2.162-4.305-3.954-.436-.94-.732-1.916-.88-2.927-.087-.505-.087-1.01-.174-1.497v-1.753c.087-.575.174-1.15.27-1.725.28-1.394.766-2.736 1.394-4.01.418-.766.88-1.516 1.444-2.197.418-.505.854-.992 1.342-1.438.174-.174.305-.174.436 0 .244.244.453.505.662.766.244.244.47.505.662.766.174.244.314.505.47.766.244.418.47.854.644 1.29.244.505.418 1.027.558 1.55.244.766.418 1.55.558 2.336.087.644.174 1.29.174 1.934v.314c0 .14-.017.296-.034.436z"/>
</svg> 