<svg xmlns="http://www.w3.org/2000/svg" viewBox="0 0 128 128">
  <path fill="#3178C6" d="M2,63.91v62.5h125V1.41H2Zm100.73-5a15.56,15.56,0,0,1,7.82,4.5,20.58,20.58,0,0,1,3,4c0,.16-5.4,3.81-8.69,5.85-.12.08-.6-.44-1.13-1.23a7.09,7.09,0,0,0-5.87-3.53c-3.79-.26-6.23,1.73-6.21,5a4.58,4.58,0,0,0,.54,2.34c.83,1.73,2.38,2.76,7.24,4.86,8.95,3.85,12.78,6.39,15.16,10,2.66,4,3.25,10.46,1.45,15.24-2,5.2-6.9,8.73-13.83,9.9a38.32,38.32,0,0,1-9.52-.1A23,23,0,0,1,80.31,105.23c-.38-.58-.68-1.08-.63-1.12L88,97.9l6.41-3.74,1.35.88a14.64,14.64,0,0,0,1.58,1.24,8.55,8.55,0,0,0,8.42-.45,4.84,4.84,0,0,0,2-3.93c0-1.52-.61-2.4-2-3.68-1.63-1.46-5.32-3-10.59-5.1-5.63-2.24-8.08-3.63-10.35-5.89a14.19,14.19,0,0,1-4.38-7.61,21.31,21.31,0,0,1-.22-4.94c.7-7.33,5.72-12.25,13.52-13.19A33.41,33.41,0,0,1,102.73,58.93ZM73.39,64.15l0,5.12H57.16V115.5H45.65V69.26H29.38v-5a49.19,49.19,0,0,1,.14-5.16c.06-.08,10-.12,22-.1L73.33,59Z"/>
</svg> 