<svg xmlns="http://www.w3.org/2000/svg" width="24" height="24" viewBox="0 0 24 24" fill="none">
  <path d="M3 3H21V21H3V3Z" fill="#F7DF1E"/>
  <path d="M14.0418 17.6538C14.3797 18.216 14.8904 18.6466 15.6189 18.6466C16.2338 18.6466 16.6322 18.3297 16.6322 17.8991C16.6322 17.3891 16.2307 17.1996 15.5292 16.8883L15.1413 16.7252C14.0478 16.2626 13.3274 15.6794 13.3274 14.4684C13.3274 13.3463 14.1962 12.4778 15.5606 12.4778C16.5515 12.4778 17.2688 12.8159 17.7953 13.7475L16.6731 14.467C16.3982 14.0049 16.0986 13.8153 15.5606 13.8153C15.0132 13.8153 14.7131 14.1172 14.7131 14.467C14.7131 14.9028 15.0132 15.0924 15.6691 15.3774L16.057 15.5406C17.3369 16.0932 18.0572 16.6553 18.0572 17.8991C18.0572 19.2416 16.9763 20 15.6535 20C14.3611 20 13.4642 19.3065 13.0342 18.3749L14.0418 17.6538ZM8.79577 17.7433C9.04423 18.1739 9.26585 18.5359 9.77573 18.5359C10.2669 18.5359 10.5826 18.3412 10.5826 17.6538V12.6201H12.0097V17.669C12.0097 19.0274 11.174 19.9959 9.82126 19.9959C8.58828 19.9959 7.88682 19.1748 7.50342 18.4244L8.79577 17.7433Z" fill="black"/>
</svg> 