<svg xmlns="http://www.w3.org/2000/svg" width="24" height="24" viewBox="0 0 24 24" fill="none">
  <path d="M11.751 3.051C7.75 3.051 8.093 4.859 8.093 4.859L8.099 6.719H11.801V7.312H6.354C6.354 7.312 3 6.906 3 10.912C3 14.918 5.95 14.78 5.95 14.78H7.375V12.802C7.375 12.802 7.273 9.853 10.31 9.853H13.957C13.957 9.853 16.812 9.899 16.812 7.124V4.966C16.812 4.966 17.264 3.051 11.751 3.051ZM9.084 5.057C9.084 5.057 10.328 3.82 11.786 5.057C11.786 5.057 12.666 5.847 11.786 6.507C11.786 6.507 10.298 7.593 9.084 6.507C9.084 6.507 8.374 5.847 9.084 5.057Z" fill="#3776AB"/>
  <path d="M12.249 20.949C16.25 20.949 15.907 19.141 15.907 19.141L15.901 17.281H12.199V16.688H17.646C17.646 16.688 21 17.094 21 13.088C21 9.082 18.05 9.22 18.05 9.22H16.625V11.198C16.625 11.198 16.727 14.147 13.69 14.147H10.043C10.043 14.147 7.188 14.101 7.188 16.876V19.034C7.188 19.034 6.736 20.949 12.249 20.949ZM14.916 18.943C14.916 18.943 13.672 20.18 12.214 18.943C12.214 18.943 11.334 18.153 12.214 17.493C12.214 17.493 13.702 16.407 14.916 17.493C14.916 17.493 15.626 18.153 14.916 18.943Z" fill="#FFD43B"/>
</svg> 