<svg xmlns="http://www.w3.org/2000/svg" width="24" height="24" viewBox="0 0 24 24" fill="none">
  <path d="M12 14.1221C13.1046 14.1221 14 13.2267 14 12.1221C14 11.0176 13.1046 10.1221 12 10.1221C10.8954 10.1221 10 11.0176 10 12.1221C10 13.2267 10.8954 14.1221 12 14.1221Z" fill="#61DAFB"/>
  <path fill-rule="evenodd" clip-rule="evenodd" d="M11.9761 8.99999C14.1689 8.99999 16.299 9.29166 17.9215 9.82638C19.8107 10.4462 21 11.3999 21 12.1221C21 12.8942 19.7003 13.9294 17.6501 14.565C16.0857 15.0631 14.0545 15.2919 12 15.2919C9.87244 15.2919 7.7756 15.0399 6.18744 14.5146C4.30964 13.8684 3 12.8457 3 12.1221C3 11.4099 4.1801 10.4611 6.06607 9.8389C7.69065 9.29499 9.81012 8.99999 11.9761 8.99999Z" stroke="#61DAFB" stroke-width="1"/>
  <path fill-rule="evenodd" clip-rule="evenodd" d="M9.4496 9.83238C10.5376 7.86866 11.8489 6.20346 13.086 5.1757C14.5445 3.97281 15.9379 3.46973 16.5 3.8799C17.093 4.30744 17.2737 5.85062 16.8001 7.89336C16.4353 9.48069 15.6569 11.3811 14.6091 13.2693C13.5302 15.2122 12.2911 16.8664 11.0484 17.8825C9.56057 19.1182 8.10838 19.6 7.53772 19.1806C6.98028 18.7719 6.79578 17.3713 7.19629 15.479C7.54413 13.8606 8.3554 11.8077 9.4496 9.83238Z" stroke="#61DAFB" stroke-width="1"/>
  <path fill-rule="evenodd" clip-rule="evenodd" d="M9.44492 13.2693C8.35619 11.3056 7.55481 9.29753 7.19715 7.67529C6.78682 5.7591 6.95275 4.30748 7.5174 3.89608C8.10723 3.46271 9.56749 3.98737 11.0821 5.25565C12.3166 6.26681 13.5695 7.93133 14.6544 9.83214C15.7708 11.7939 16.5964 13.8476 16.9528 15.4724C17.3855 17.5353 17.1469 19.0422 16.5489 19.476C15.9683 19.8986 14.6164 19.4173 13.1404 18.2412C11.897 17.2254 10.5394 15.2444 9.44492 13.2693Z" stroke="#61DAFB" stroke-width="1"/>
</svg> 