<svg xmlns="http://www.w3.org/2000/svg" viewBox="0 0 128 128">
  <!-- Background -->
  <circle cx="64" cy="64" r="64" fill="#e2e8f0"/>
  
  <!-- Face -->
  <circle cx="64" cy="64" r="40" fill="#fcd34d"/>
  
  <!-- Hair -->
  <path d="M64 30c-22 0-40 18-40 40 0 10 4 19 10 26 6-20 30-20 30-20s24 0 30 20c6-7 10-16 10-26 0-22-18-40-40-40z" fill="#7c3aed"/>
  <path d="M44 70c0-20 20-15 20-15s20-5 20 15c-6-15-20-10-20-10s-14-5-20 10z" fill="#7c3aed"/>
  
  <!-- Eyes -->
  <circle cx="52" cy="60" r="4" fill="#1f2937"/>
  <circle cx="76" cy="60" r="4" fill="#1f2937"/>
  
  <!-- Smile -->
  <path d="M52 75c5 5 19 5 24 0" fill="none" stroke="#1f2937" stroke-width="2" stroke-linecap="round"/>
  
  <!-- Earrings -->
  <circle cx="34" cy="64" r="3" fill="#fde68a"/>
  <circle cx="94" cy="64" r="3" fill="#fde68a"/>
</svg> 