<svg xmlns="http://www.w3.org/2000/svg" viewBox="0 0 128 128">
  <!-- Background -->
  <circle cx="64" cy="64" r="64" fill="#e2e8f0"/>
  
  <!-- Face -->
  <circle cx="64" cy="64" r="40" fill="#fcd34d"/>
  
  <!-- Hair -->
  <path d="M34 50c0-20 15-25 30-25s30 5 30 25c0 15-5 20-10 25 6-20-20-20-20-20s-26 0-20 20c-5-5-10-10-10-25z" fill="#1f2937"/>
  
  <!-- Eyes -->
  <circle cx="52" cy="60" r="4" fill="#1f2937"/>
  <circle cx="76" cy="60" r="4" fill="#1f2937"/>
  
  <!-- Smile -->
  <path d="M52 75c5 5 19 5 24 0" fill="none" stroke="#1f2937" stroke-width="2" stroke-linecap="round"/>
  
  <!-- Glasses -->
  <rect x="46" y="56" width="12" height="8" rx="2" fill="none" stroke="#4b5563" stroke-width="2"/>
  <rect x="70" y="56" width="12" height="8" rx="2" fill="none" stroke="#4b5563" stroke-width="2"/>
  <line x1="58" y1="60" x2="70" y2="60" stroke="#4b5563" stroke-width="2"/>
</svg> 